<svg width="32" height="34" viewBox="0 0 32 34" fill="none" xmlns="http://www.w3.org/2000/svg">
<path d="M16.9818 2.50719V13.399C16.9818 14.2974 17.4616 15.1257 18.2386 15.5717L27.6573 20.971C29.3218 21.9253 31.3929 20.7201 31.3929 18.7983V7.95802C31.3929 7.06398 30.9175 6.23786 30.1448 5.79084L20.7261 0.338915C19.0616 -0.624156 16.9807 0.579956 16.9807 2.5061L16.9818 2.50719Z" fill="#4A3BD6"/>
<path d="M14.4115 2.50719V13.399C14.4115 14.2974 13.9317 15.1257 13.1547 15.5717L3.73598 20.971C2.07148 21.9253 0.000413895 20.7201 0.000413895 18.7983V7.95802C0.000413895 7.06398 0.47583 6.23786 1.24852 5.79084L10.6672 0.338915C12.3317 -0.624156 14.4126 0.579956 14.4126 2.5061L14.4115 2.50719Z" fill="#7165DF"/>
<path d="M14.3189 17.7268L4.84662 23.1568C3.17447 24.1155 3.169 26.5314 4.83787 27.4967L14.3101 32.9793C15.0828 33.4263 16.0347 33.4263 16.8063 32.9793L26.2786 27.4967C27.9474 26.5314 27.942 24.1155 26.2698 23.1568L16.7976 17.7268C16.0293 17.2864 15.0872 17.2864 14.3189 17.7268Z" fill="#9E94F8"/>
</svg>
