<svg viewBox="0 0 30 30" fill="none" xmlns="http://www.w3.org/2000/svg">
    <path d="M23 7.88213C23 7.61935 23 7.35657 22.999 7.0938C22.998 6.87278 22.9949 6.65074 22.9888 6.42972C22.9756 5.94796 22.947 5.46111 22.8615 4.98444C22.7749 4.50065 22.6323 4.05046 22.4082 3.61046C22.1882 3.17861 21.901 2.78343 21.5588 2.44019C21.2156 2.09796 20.8214 1.81074 20.3885 1.59074C19.9495 1.36667 19.4994 1.22509 19.0156 1.13852C18.5389 1.05296 18.052 1.02444 17.5703 1.0112C17.3493 1.00509 17.1272 1.00306 16.9062 1.00102C16.6434 1 16.3806 1 16.1179 1H7.88213C7.61935 1 7.35657 1 7.0938 1.00102C6.87278 1.00204 6.65074 1.00509 6.42972 1.0112C5.94796 1.02444 5.46111 1.05296 4.98444 1.13852C4.50065 1.22509 4.05046 1.36769 3.61148 1.59074C3.17963 1.81074 2.78343 2.09796 2.4412 2.44019C2.09796 2.78343 1.81176 3.17759 1.59176 3.61046C1.36769 4.05046 1.22611 4.50065 1.13852 4.98444C1.05296 5.46111 1.02444 5.94796 1.01222 6.42972C1.00611 6.65074 1.00306 6.87278 1.00204 7.0938C1 7.35657 1 7.61935 1 7.88213V16.1179C1 16.3806 1 16.6434 1.00204 16.9062C1.00306 17.1272 1.00611 17.3493 1.01222 17.5703C1.02546 18.052 1.05398 18.5389 1.13954 19.0156C1.22611 19.4994 1.3687 19.9506 1.59278 20.3895C1.81278 20.8214 2.1 21.2166 2.44222 21.5588C2.78444 21.902 3.17963 22.1893 3.6125 22.4093C4.05148 22.6333 4.50167 22.7749 4.98546 22.8615C5.46213 22.947 5.94898 22.9756 6.43074 22.9888C6.65176 22.9949 6.8738 22.9969 7.09482 22.999C7.35759 23 7.62037 23 7.88315 23H16.1189C16.3817 23 16.6444 23 16.9072 22.999C17.1282 22.998 17.3503 22.9949 17.5713 22.9888C18.0531 22.9756 18.5399 22.947 19.0166 22.8615C19.5004 22.7749 19.9506 22.6323 20.3895 22.4093C20.8214 22.1893 21.2166 21.902 21.5598 21.5588C21.9031 21.2166 22.1893 20.8214 22.4093 20.3895C22.6333 19.9495 22.7749 19.4994 22.8625 19.0156C22.9481 18.5389 22.9766 18.0531 22.9898 17.5703C22.9959 17.3493 22.998 17.1272 23 16.9062C23.001 16.6434 23.001 16.3806 23.001 16.1179V7.88213H23Z" fill="white"/>
    <path d="M9.21129 18.9983V8.76318H8.78148L6.17407 10.4896V10.9265L8.75194 9.23883H8.7825V18.9994H9.21129V18.9983Z" fill="black"/>
    <path d="M11.7585 8.76318V9.15532H17.3808V9.18587L12.8657 18.9994H13.3485L17.8259 9.17772V8.76318H11.7585Z" fill="black"/>
    <path d="M4.99776 6.7557V4.54241H5.0059L5.88081 6.52959H6.17109L7.04294 4.54241H7.05313V6.7557H7.3434V3.82434H7.03581L6.03155 6.1731H6.0234L5.01609 3.82536H4.7085V6.7557H4.99776Z" fill="#FF0000"/>
    <path d="M8.92106 4.46899C8.30893 4.46899 7.96875 4.91408 7.96875 5.51703V5.73805C7.96875 6.34406 8.30588 6.79118 8.92106 6.79118C9.53522 6.79118 9.87031 6.34406 9.87031 5.73805V5.51703C9.87133 4.91408 9.53114 4.46899 8.92106 4.46899ZM8.92106 4.74603C9.32031 4.74603 9.55457 5.04445 9.55457 5.53231V5.72175C9.55457 6.21165 9.32031 6.51008 8.92106 6.51008C8.51875 6.51008 8.28551 6.20962 8.28551 5.72175V5.53231C8.28551 5.04547 8.51976 4.74603 8.92106 4.74603Z" fill="#FF0000"/>
    <path d="M10.4619 6.75581H10.7777V5.37773C10.7777 5.05588 10.9539 4.75846 11.3664 4.75846C11.7188 4.75846 11.9449 4.97134 11.9449 5.35532V6.75377H12.2606V5.30745C12.2606 4.76152 11.9143 4.46716 11.4509 4.46716C11.0812 4.46716 10.8703 4.66068 10.7868 4.81143H10.7777V4.50383H10.4619V6.75581Z" fill="#FF0000"/>
    <path d="M13.7141 4.46713C13.1549 4.46713 12.8137 4.90305 12.8137 5.51314V5.74332C12.8137 6.36461 13.1295 6.78933 13.7141 6.78933C14.037 6.78933 14.2682 6.62637 14.3884 6.40433H14.3965V6.7547H14.6949V3.6676H14.3792V4.82768H14.371C14.2621 4.63315 14.0298 4.46713 13.7141 4.46713ZM13.7426 4.74926C14.1419 4.74926 14.3873 5.06296 14.3873 5.5274V5.73619C14.3873 6.21998 14.149 6.50924 13.7467 6.50924C13.3902 6.50924 13.1305 6.24952 13.1305 5.73415V5.53045C13.1295 5.0049 13.3943 4.74926 13.7426 4.74926Z" fill="#FF0000"/>
    <path d="M16.6496 6.46322H16.6577V6.75554H16.9653V5.19111C16.9653 4.72871 16.6261 4.46899 16.1576 4.46899C15.6361 4.46899 15.3672 4.74195 15.3408 5.13306H15.6392C15.6647 4.89473 15.8347 4.74195 16.1444 4.74195C16.4642 4.74195 16.6496 4.91204 16.6496 5.22778V5.47018H16.0374C15.5241 5.47222 15.2532 5.72175 15.2532 6.11082C15.2532 6.52332 15.5516 6.7922 15.9885 6.7922C16.3318 6.79118 16.5416 6.6435 16.6496 6.46322ZM16.0629 6.51924C15.8093 6.51924 15.5791 6.38378 15.5791 6.10471C15.5791 5.88573 15.7186 5.72888 16.0476 5.72888H16.6496V6.00592C16.6496 6.30841 16.398 6.51924 16.0629 6.51924Z" fill="#FF0000"/>
    <path d="M19.2915 4.50586H18.9544L18.3117 6.38808H18.3005L17.6578 4.50586H17.3064L18.1467 6.79141L18.1039 6.92891C18.0377 7.16114 17.9236 7.2966 17.6588 7.2966C17.6099 7.2966 17.5295 7.29049 17.4938 7.28336V7.55225C17.5498 7.5604 17.6333 7.56956 17.7087 7.56956C18.1467 7.56956 18.2974 7.2691 18.4156 6.94419L18.4797 6.77614L19.2915 4.50586Z" fill="#FF0000"/>
</svg>