<svg width="24" height="24" viewBox="0 0 24 24" fill="none" xmlns="http://www.w3.org/2000/svg">
<path d="M12.3979 22.9979C18.5371 22.8802 23.4367 17.8224 23.2597 11.7647C23.2006 9.64743 22.5512 7.70664 21.4888 6.05988C19.3636 6.05988 17.1795 6.648 16.412 6.88324C17.8878 8.05949 18.8323 9.88273 18.8913 11.8823C18.9504 14.7053 17.2384 17.1166 14.8182 18.1753C14.582 17.5871 14.464 17.3519 14.2279 16.7638C11.8076 18.1753 8.32474 19.7044 4.31055 19.8809C6.37665 21.8804 9.21024 23.0567 12.3979 22.9979Z" fill="#0197DB"/>
<path d="M11.8664 1.00201C5.72717 1.11964 0.827483 6.17753 1.00466 12.2352C1.06362 14.3525 1.71298 16.2933 2.77557 17.94C4.90073 17.94 7.08486 17.3519 7.85224 17.1166C6.37644 15.9404 5.43198 14.1172 5.37292 12.1176C5.31395 9.2946 7.0258 6.88327 9.44607 5.82464C9.68221 6.41277 9.80033 6.64802 10.0365 7.23616C12.4567 5.82464 15.9396 4.29552 19.9537 4.11908C17.8876 2.17827 14.995 0.943205 11.8664 1.00201Z" fill="#0197DB"/>
</svg>
