<svg width="30" height="30" viewBox="0 0 30 30" fill="none" xmlns="http://www.w3.org/2000/svg">
<path d="M22.8992 7.10547H7.10938V22.8949H22.8992V7.10547Z" fill="white"/>
<path d="M22.8906 29.9998L29.996 22.8945H22.8906V29.9998Z" fill="#EA4335"/>
<path d="M29.996 7.10547H22.8906V22.8949H29.996V7.10547Z" fill="#FBBC04"/>
<path d="M22.8992 22.8945H7.10938V29.9998H22.8992V22.8945Z" fill="#34A853"/>
<path d="M0 22.8945V27.6314C0 28.9399 1.05989 29.9998 2.36847 29.9998H7.10542V22.8945H0Z" fill="#188038"/>
<path d="M29.996 7.10525V2.36842C29.996 1.05987 28.9362 0 27.6276 0H22.8906V7.10525H29.996Z" fill="#1967D2"/>
<path d="M22.8952 0H2.36847C1.05989 0 0 1.05987 0 2.36842V22.8947H7.10542V7.10525H22.8952V0Z" fill="#4285F4"/>
<path d="M10.3467 19.3536C9.75659 18.9549 9.34803 18.3727 9.125 17.603L10.4948 17.0385C10.6191 17.5122 10.8362 17.8793 11.1461 18.1398C11.454 18.4003 11.829 18.5286 12.2672 18.5286C12.7152 18.5286 13.1001 18.3924 13.4218 18.1201C13.7435 17.8477 13.9054 17.5003 13.9054 17.0799C13.9054 16.6497 13.7356 16.2984 13.3961 16.026C13.0567 15.7536 12.6303 15.6174 12.1211 15.6174H11.3297V14.2615H12.0402C12.4784 14.2615 12.8474 14.1431 13.1475 13.9063C13.4475 13.6694 13.5975 13.3457 13.5975 12.9332C13.5975 12.5661 13.4632 12.274 13.1948 12.055C12.9264 11.8359 12.5869 11.7253 12.1744 11.7253C11.7718 11.7253 11.452 11.8319 11.2152 12.0471C10.9785 12.2628 10.8005 12.5351 10.6981 12.8385L9.34211 12.274C9.52172 11.7648 9.85133 11.3148 10.3349 10.926C10.8185 10.5372 11.4362 10.3418 12.1863 10.3418C12.7409 10.3418 13.2402 10.4484 13.6823 10.6635C14.1244 10.8786 14.4718 11.1767 14.7225 11.5556C14.9731 11.9365 15.0975 12.3628 15.0975 12.8365C15.0975 13.3201 14.981 13.7286 14.7481 14.0642C14.5152 14.3997 14.2291 14.6563 13.8896 14.8359V14.9168C14.3279 15.0975 14.7087 15.3943 14.9909 15.7753C15.2771 16.1602 15.4212 16.6201 15.4212 17.1569C15.4212 17.6938 15.285 18.1734 15.0126 18.5938C14.7402 19.0142 14.3633 19.3457 13.8856 19.5865C13.406 19.8273 12.8672 19.9497 12.2691 19.9497C11.5764 19.9517 10.9369 19.7523 10.3467 19.3536ZM18.7607 12.5563L17.2568 13.6438L16.5048 12.503L19.2028 10.5569H20.2371V19.7365H18.7607V12.5563Z" fill="#4285F4"/>
</svg>
