<svg xmlns="http://www.w3.org/2000/svg" fill="none" viewBox="0 0 22 22">
  <rect width="22" height="22" fill="#000" rx="2"/>
  <path fill="#fff" fill-rule="evenodd" d="M14.303 6.218a4.05 4.05 0 0 0-3.315 1.26 4.053 4.053 0 0 0-2.942-1.274A4.05 4.05 0 0 0 4 10.244v5.103h2.18v-5.04c0-.925.761-1.778 1.658-1.87a1.844 1.844 0 0 1 2.02 1.822v5.088h2.23v-5.05c0-.92.756-1.773 1.657-1.865.063-.004.126-.01.184-.01 1.008 0 1.837.82 1.842 1.823v5.102H18v-5.04a4.138 4.138 0 0 0-1.061-2.766 3.976 3.976 0 0 0-2.636-1.323Z" clip-rule="evenodd"/>
</svg>
