<svg width="34" height="31" viewBox="0 0 34 31" fill="none" xmlns="http://www.w3.org/2000/svg">
<path d="M33.3323 16.2796C33.3341 16.0189 33.1994 15.7764 32.9772 15.6401H32.9734L32.9594 15.6323L21.4091 8.79508C21.3592 8.76138 21.3075 8.73058 21.2541 8.70284C20.8081 8.47275 20.2784 8.47275 19.8324 8.70284C19.779 8.7306 19.7272 8.76138 19.6773 8.79508L8.12708 15.6323L8.11313 15.6401C7.76012 15.8596 7.6519 16.3237 7.87142 16.6768C7.9361 16.7808 8.02519 16.8674 8.13096 16.9292L19.6812 23.7664C19.7313 23.7998 19.783 23.8306 19.8363 23.8587C20.2823 24.0888 20.812 24.0888 21.258 23.8587C21.3112 23.8306 21.363 23.7999 21.413 23.7664L32.9633 16.9292C33.1941 16.7947 33.3349 16.5467 33.3323 16.2796Z" fill="#0A2767"/>
<path d="M9.47716 11.7139H17.057V18.662H9.47716V11.7139ZM31.7857 4.65116V1.47286C31.8039 0.678213 31.1749 0.0190415 30.3803 0H10.7105C9.91586 0.0190415 9.28687 0.678213 9.30507 1.47286V4.65116L20.933 7.75192L31.7857 4.65116Z" fill="#0364B8"/>
<path d="M9.30469 4.65137H17.0567V11.6281H9.30469V4.65137Z" fill="#0078D4"/>
<path d="M24.8066 4.65137H17.0547V11.6281L24.8066 18.6048H31.7833V11.6281L24.8066 4.65137Z" fill="#28A8EA"/>
<path d="M17.0547 11.6279H24.8065V18.6047H17.0547V11.6279Z" fill="#0078D4"/>
<path d="M17.0547 18.6045H24.8065V25.5812H17.0547V18.6045Z" fill="#0364B8"/>
<path d="M9.47656 18.6621H17.0565V24.9784H9.47656V18.6621Z" fill="#14447D"/>
<path d="M24.8047 18.6045H31.7814V25.5812H24.8047V18.6045Z" fill="#0078D4"/>
<path d="M32.9763 16.8863L32.9616 16.894L21.4112 23.3901C21.3608 23.4211 21.3097 23.4506 21.2562 23.4769C21.06 23.5703 20.8469 23.6231 20.6298 23.632L19.9988 23.263C19.9455 23.2362 19.8937 23.2064 19.8438 23.1738L8.13837 16.4932H8.13294L7.75 16.2793V29.4296C7.75597 30.307 8.47185 31.0134 9.34922 31.0079H31.7569C31.7701 31.0079 31.7818 31.0017 31.7957 31.0017C31.981 30.9898 32.1637 30.9517 32.3383 30.8885C32.4138 30.8565 32.4866 30.8187 32.5562 30.7753C32.6081 30.7459 32.6972 30.6815 32.6972 30.6815C33.0944 30.3877 33.3294 29.9236 33.3314 29.4296V16.2793C33.3311 16.5308 33.1954 16.7627 32.9763 16.8863Z" fill="url(#paint0_linear_4822_56501)"/>
<path opacity="0.5" d="M32.713 16.2274V17.0336L20.6355 25.349L8.1316 16.4987C8.1316 16.4945 8.12812 16.491 8.12384 16.491L6.97656 15.8011V15.2197L7.44943 15.2119L8.44942 15.7856L8.47267 15.7933L8.55794 15.8476C8.55794 15.8476 20.3099 22.5529 20.3409 22.5684L20.7905 22.832C20.8292 22.8165 20.868 22.801 20.9145 22.7855C20.9378 22.77 32.5812 16.2196 32.5812 16.2196L32.713 16.2274Z" fill="#0A2767"/>
<path d="M32.9763 16.8863L32.9616 16.8948L21.4112 23.3909C21.3608 23.4219 21.3097 23.4514 21.2562 23.4777C20.8076 23.6969 20.283 23.6969 19.8345 23.4777C19.7813 23.4514 19.7296 23.4224 19.6794 23.3909L8.12906 16.8948L8.11512 16.8863C7.89212 16.7654 7.75231 16.533 7.75 16.2793V29.4297C7.75555 30.3069 8.47118 31.0135 9.34838 31.008C9.3484 31.008 9.34841 31.008 9.34845 31.008H31.7329C32.6101 31.0136 33.3258 30.307 33.3314 29.4298C33.3314 29.4297 33.3314 29.4297 33.3314 29.4297V16.2793C33.3311 16.5308 33.1954 16.7627 32.9763 16.8863Z" fill="#1490DF"/>
<path opacity="0.1" d="M21.5778 23.2949L21.405 23.3918C21.3549 23.4237 21.3031 23.453 21.2499 23.4794C21.0595 23.5729 20.8524 23.6277 20.6406 23.6407L25.0352 28.8376L32.7011 30.6848C32.9111 30.5262 33.0782 30.3175 33.1871 30.0779L21.5778 23.2949Z" fill="black"/>
<path opacity="0.05" d="M22.3608 22.8545L21.405 23.3917C21.3549 23.4236 21.3031 23.4528 21.2499 23.4793C21.0595 23.5728 20.8524 23.6276 20.6406 23.6405L22.6995 29.3173L32.7034 30.6824C33.0975 30.3865 33.3295 29.9225 33.3298 29.4297V29.2599L22.3608 22.8545Z" fill="black"/>
<path d="M9.37015 31.0081H31.7306C32.0747 31.0098 32.4102 30.9011 32.6879 30.698L19.998 23.2646C19.9447 23.2379 19.8929 23.2081 19.843 23.1755L8.13758 16.4948H8.13216L7.75 16.2793V29.3848C7.74913 30.2805 8.47449 31.0072 9.37015 31.0081C9.37013 31.0081 9.37013 31.0081 9.37015 31.0081Z" fill="#28A8EA"/>
<path opacity="0.1" d="M18.6027 7.6221V24.157C18.6013 24.7367 18.2488 25.2578 17.7112 25.4748C17.5447 25.5464 17.3654 25.5833 17.1841 25.5833H7.75V6.97636H9.30039V6.20117H17.1841C17.9672 6.20414 18.601 6.83895 18.6027 7.6221Z" fill="black"/>
<path opacity="0.2" d="M17.8276 8.39755V24.9324C17.8296 25.1197 17.7899 25.305 17.7113 25.475C17.496 26.0057 16.9817 26.3538 16.409 26.3564H7.75V6.97663H16.409C16.6339 6.97437 16.8556 7.03048 17.0524 7.13943C17.5276 7.37883 17.8274 7.86546 17.8276 8.39755Z" fill="black"/>
<path opacity="0.2" d="M17.8275 8.39754V23.3819C17.8237 24.1647 17.1917 24.7992 16.4089 24.806H7.75V6.97663H16.4089C16.6338 6.97437 16.8555 7.03048 17.0523 7.13943C17.5275 7.37883 17.8273 7.86546 17.8275 8.39754Z" fill="black"/>
<path opacity="0.2" d="M17.0524 8.39749V23.382C17.0516 24.166 16.4178 24.8022 15.6338 24.806H7.75V6.97656H15.6338C16.4177 6.97698 17.0528 7.61282 17.0524 8.39672C17.0524 8.39698 17.0524 8.39723 17.0524 8.39749Z" fill="black"/>
<path d="M1.42093 6.97656H15.6334C16.4182 6.97656 17.0543 7.61274 17.0543 8.39749V22.6099C17.0543 23.3946 16.4182 24.0308 15.6334 24.0308H1.42093C0.636166 24.0308 0 23.3946 0 22.6099V8.39749C0 7.61274 0.636184 6.97656 1.42093 6.97656Z" fill="url(#paint1_linear_4822_56501)"/>
<path d="M4.44271 12.9367C4.79292 12.1905 5.35819 11.5661 6.06597 11.1437C6.84979 10.6949 7.74223 10.4712 8.64504 10.4971C9.4818 10.479 10.3075 10.6911 11.0319 11.1103C11.713 11.5165 12.2615 12.1116 12.6109 12.8235C12.9915 13.6079 13.1811 14.4712 13.1644 15.3429C13.1829 16.2539 12.9877 17.1565 12.5947 17.9785C12.2369 18.7158 11.671 19.3322 10.9667 19.7514C10.2144 20.1834 9.3581 20.4011 8.49078 20.3808C7.63615 20.4015 6.79228 20.187 6.05124 19.7607C5.36426 19.354 4.80883 18.7582 4.45125 18.0444C4.06845 17.2713 3.87654 16.4178 3.89156 15.5553C3.87561 14.652 4.06403 13.7569 4.44271 12.9367ZM6.17294 17.146C6.35966 17.6177 6.6763 18.0268 7.08611 18.3258C7.50353 18.6176 8.00337 18.7681 8.51246 18.7553C9.05464 18.7767 9.58906 18.6211 10.0349 18.3119C10.4396 18.0138 10.7479 17.6035 10.9218 17.132C11.1161 16.6054 11.212 16.0475 11.2047 15.4863C11.2107 14.9196 11.1206 14.3561 10.938 13.8196C10.7768 13.3353 10.4785 12.9082 10.0791 12.5902C9.64441 12.2663 9.11143 12.1021 8.56982 12.125C8.0497 12.1116 7.53867 12.2633 7.11014 12.5584C6.6934 12.8587 6.37075 13.2714 6.17991 13.7483C5.75657 14.8414 5.75437 16.0528 6.1737 17.1475L6.17294 17.146Z" fill="white"/>
<path d="M24.8047 4.65137H31.7814V11.6281H24.8047V4.65137Z" fill="#50D9FF"/>
<defs>
<linearGradient id="paint0_linear_4822_56501" x1="20.5407" y1="16.2793" x2="20.5407" y2="31.0079" gradientUnits="userSpaceOnUse">
<stop stop-color="#35B8F1"/>
<stop offset="1" stop-color="#28A8EA"/>
</linearGradient>
<linearGradient id="paint1_linear_4822_56501" x1="2.96269" y1="5.86628" x2="14.0916" y2="25.1412" gradientUnits="userSpaceOnUse">
<stop stop-color="#1784D9"/>
<stop offset="0.5" stop-color="#107AD5"/>
<stop offset="1" stop-color="#0A63C9"/>
</linearGradient>
</defs>
</svg>
