<?xml version="1.0" encoding="UTF-8"?> <svg xmlns="http://www.w3.org/2000/svg" width="89" height="25" viewBox="0 0 89 25" fill="none"><g clip-path="url(#clip0_8463_73140)"><path d="M84.3965 10.742C84.3965 10.0147 84.1158 9.45522 83.5543 9.11957C82.9928 8.78393 82.3189 8.6161 81.4766 8.6161C81.0835 8.6161 80.6905 8.67205 80.2974 8.72798C79.9043 8.78393 79.6236 8.83988 79.3428 8.95175V20.9798H74.8507V7.21749C75.6368 6.93778 76.6475 6.65805 77.8267 6.49022C79.0059 6.26645 80.2974 6.21051 81.6451 6.21051C84.0035 6.21051 85.8003 6.60212 87.0919 7.32939C88.3272 8.05666 88.9449 9.23148 88.9449 10.742V21.0357H84.3965V10.742Z" fill="#0094FF"></path><path d="M44.4722 6.37831C45.9884 6.37831 47.5044 6.43425 48.9644 6.65803V21.0357H44.4722V6.37831Z" fill="#0094FF"></path><path d="M49.1885 2.46221C49.1885 2.96571 48.9639 3.4692 48.4586 3.80487C47.9532 4.19647 47.3916 4.36431 46.6617 4.36431C45.9878 4.36431 45.3701 4.19647 44.921 3.80487C44.4156 3.41326 44.1909 2.96571 44.1909 2.46221C44.1909 1.95871 44.4156 1.45522 44.921 1.11956C45.4263 0.727945 45.9878 0.560113 46.6617 0.560113C47.3355 0.560113 47.9532 0.727945 48.4586 1.11956C48.9639 1.51117 49.1885 1.95871 49.1885 2.46221Z" fill="#0094FF"></path><path d="M41.6652 9.06366C41.0476 8.89582 40.3737 8.78394 39.6999 8.72799C38.97 8.72799 38.4084 8.78394 37.9592 9.00775V21.0357H33.467V7.2175C34.3093 6.88184 35.2639 6.60212 36.3869 6.43429C37.51 6.26645 38.8576 6.15457 40.486 6.15457C40.8229 6.15457 41.216 6.15457 41.6091 6.15457C42.0021 6.15457 42.339 6.21052 42.5636 6.21052L41.6652 9.06366Z" fill="#0094FF"></path><path d="M9.99511 13.4832C9.99511 12.7559 9.93893 12.1406 9.82667 11.5252C9.71431 10.9098 9.48969 10.4063 9.20898 9.95877C8.92818 9.51122 8.59128 9.17549 8.14206 8.89581C7.69284 8.67203 7.18748 8.5042 6.51365 8.5042C5.67137 8.5042 4.99755 8.61608 4.49218 8.83986V18.3503C4.66063 18.4622 4.94139 18.5182 5.22215 18.5742C5.50292 18.6301 5.83982 18.6301 6.28904 18.6301C7.58054 18.6301 8.47898 18.1825 9.09662 17.2315C9.71431 16.3364 9.99511 15.0496 9.99511 13.4832ZM14.5996 13.2594C14.5996 15.721 13.8696 17.679 12.4096 19.0217C10.9497 20.4203 8.81589 21.0916 6.00828 21.0916C4.60448 21.0916 3.36913 20.9798 2.35839 20.8118C1.34765 20.5881 0.561522 20.3644 0 20.0286V0.0566406H4.49218V6.76993C4.88524 6.6021 5.33445 6.49021 5.89598 6.37832C6.4575 6.26643 7.07517 6.21049 7.86131 6.21049C8.87204 6.21049 9.77049 6.37832 10.6128 6.71398C11.455 7.04965 12.185 7.55315 12.7466 8.16852C13.3642 8.78391 13.8134 9.51122 14.1503 10.4063C14.4311 11.2454 14.5996 12.1965 14.5996 13.2594Z" fill="#0094FF"></path><path d="M26.3922 8.89582C26.1676 8.78394 25.9429 8.72799 25.6622 8.67205C25.3814 8.61611 25.0445 8.56016 24.5953 8.56016C23.3038 8.56016 22.3492 9.00775 21.7316 9.90286C21.1139 10.7979 20.777 12.1406 20.777 13.8749C20.777 17.1756 22.0123 18.8539 24.483 18.8539C24.8199 18.8539 25.213 18.7979 25.5499 18.742C25.8868 18.6861 26.1676 18.5742 26.3922 18.4622V8.89582ZM30.9405 20.9797C30.9405 20.9797 23.8653 21.0917 23.1915 21.0917C22.1807 21.0917 21.2261 20.9238 20.3277 20.5881C19.4854 20.2525 18.6993 19.8049 18.0817 19.1895C17.464 18.5741 16.9586 17.8469 16.6217 17.0078C16.2848 16.1686 16.1164 15.1615 16.1164 14.0986C16.1164 12.9238 16.2848 11.8049 16.6779 10.8539C17.0148 9.90286 17.5763 9.06366 18.3062 8.33638C19.0363 7.66506 19.9347 7.10562 21.0577 6.71401C22.1246 6.3224 23.4161 6.15457 24.8761 6.15457C26.1676 6.15457 27.3468 6.26645 28.4136 6.43429C29.4805 6.65806 30.3228 6.76996 30.9405 7.10562V20.9797Z" fill="#0094FF"></path><path d="M62.2172 24.0566C68.057 23.9447 72.7176 19.1336 72.5491 13.3713C72.493 11.3574 71.8753 9.51122 70.8646 7.94477C68.8431 7.94477 66.7655 8.50421 66.0355 8.72798C67.4393 9.84686 68.3378 11.5812 68.3939 13.4832C68.45 16.1686 66.8216 18.4622 64.5194 19.4693C64.2947 18.9098 64.1825 18.6861 63.9579 18.1266C61.6556 19.4693 58.3427 20.9238 54.5243 21.0917C56.4896 22.9937 59.185 24.1126 62.2172 24.0566Z" fill="#0094FF"></path><path d="M61.7115 3.13358C55.8716 3.24548 51.2109 8.05667 51.3795 13.8189C51.4355 15.8329 52.0532 17.679 53.064 19.2454C55.0855 19.2454 57.1631 18.6861 57.8931 18.4622C56.4892 17.3434 55.5908 15.6091 55.5347 13.707C55.4786 11.0217 57.1069 8.72799 59.4091 7.721C59.6338 8.28044 59.7461 8.50421 59.9707 9.06366C62.273 7.721 65.5859 6.26645 69.4043 6.09862C67.4389 4.25247 64.6875 3.07765 61.7115 3.13358Z" fill="#0094FF"></path></g><defs><clipPath id="clip0_8463_73140"><rect width="88.9449" height="24.002" fill="white" transform="translate(0 0.0566406)"></rect></clipPath></defs></svg> 