<svg width="20" height="20" viewBox="0 0 20 20" fill="none" xmlns="http://www.w3.org/2000/svg">
<path d="M9.66248 7.13921V1.33559C9.66248 0.308989 8.55624 -0.33266 7.67129 0.180671L2.66373 3.08522C2.25301 3.32341 2 3.76371 2 4.24014V10.0161C2 11.0404 3.10147 11.6823 3.98643 11.1739L8.99404 8.29693C9.40738 8.05939 9.66248 7.61763 9.66248 7.13921Z" fill="white"/>
<path d="M10.99 1.33565V7.13926C10.99 7.61768 11.2451 8.05944 11.6584 8.29693L16.6661 11.1739C17.551 11.6824 18.6525 11.0404 18.6525 10.0162V4.2402C18.6525 3.76377 18.3995 3.32347 17.9888 3.08528L12.9812 0.180668C12.0962 -0.332604 10.99 0.309045 10.99 1.33565Z" fill="white"/>
<path d="M9.66726 9.44645L4.63106 12.3398C3.74186 12.8507 3.73924 14.1379 4.62629 14.6525L9.6625 17.5736C10.0732 17.8119 10.5792 17.8119 10.99 17.5736L16.0262 14.6525C16.9133 14.1379 16.9107 12.8507 16.0215 12.3398L10.9853 9.44645C10.5769 9.21182 10.0755 9.21182 9.66726 9.44645Z" fill="white"/>
</svg>
